<?xml version="1.0" encoding="utf-8"?>
<!-- Generator: Adobe Illustrator 24.2.1, SVG Export Plug-In . SVG Version: 6.00 Build 0)  -->
<svg version="1.1" id="Layer_1" xmlns="http://www.w3.org/2000/svg" xmlns:xlink="http://www.w3.org/1999/xlink" x="0px" y="0px"
	 viewBox="0 0 500 90" style="enable-background:new 0 0 500 90;" xml:space="preserve">
<style type="text/css">
	.st0{fill:#FF455A;}
</style>
<g>
	<polygon class="st0" points="59.29,39.04 76.37,63.23 76.37,0 59.29,0 	"/>
	<polygon class="st0" points="0,90 17.07,90 17.07,50.92 0,26.74 	"/>
	<polygon class="st0" points="59.01,61.2 15.81,0 0,0 0,4.21 30.72,47.74 60.55,90 76.37,90 76.37,85.75 59.01,61.16 	"/>
	<rect x="201.69" y="39" class="st0" width="17.45" height="51"/>
	<polygon class="st0" points="113.72,39 96.27,39 96.27,90 113.72,90 113.72,54.21 157.85,54.21 157.85,39.03 113.72,39.03 	"/>
	<polygon class="st0" points="96.27,0 96.27,12.37 96.27,12.37 96.27,25.95 113.72,25.95 113.72,15.06 162.53,15.06 162.53,0 	"/>
	<polygon class="st0" points="173.62,15.06 201.69,15.06 201.69,25.95 219.14,25.95 219.14,15.06 246.55,15.06 246.55,0 173.62,0 	
		"/>
	<path class="st0" d="M318.31,3.84C313.97,1.28,308.97,0,303.33,0h-13.15c-5.65,0-10.65,1.28-14.98,3.84
		c-4.35,2.56-7.72,6.14-10.12,10.75c-2.4,4.6-3.6,9.96-3.6,16.08V39h-11.82v15.06h11.82v5.27c0,6.04,1.18,11.38,3.54,16.03
		c2.36,4.64,5.71,8.26,10.05,10.81c4.34,2.56,9.33,3.83,14.98,3.83h13.15c5.65,0,10.64-1.27,14.98-3.83
		c4.34-2.56,7.71-6.17,10.12-10.81c2.4-4.65,3.61-9.99,3.61-16.03V30.67c0-6.12-1.18-11.48-3.54-16.08
		C326,9.97,322.65,6.39,318.31,3.84z M324.95,59.33c0,7.29-2.02,13.18-6.07,17.66c-4.05,4.49-9.32,6.73-15.81,6.73h-12.9
		c-6.49,0-11.74-2.24-15.75-6.73c-4-4.48-6.01-10.36-6.01-17.66v-5.27h3.54l0-15.06h-3.54v-8.33c0-7.37,2-13.3,6.01-17.78
		c4-4.49,9.29-6.73,15.87-6.73h12.9c6.49,0,11.74,2.24,15.75,6.73c4,4.48,6.01,10.41,6.01,17.78V59.33z"/>
	<polygon class="st0" points="410.86,78.82 359.78,0 352.95,0 352.95,90 359.65,90 359.65,11.45 410.86,90 417.57,90 417.57,0 
		410.86,0 	"/>
	<path class="st0" d="M500,6.17V0h-57.03v83.19c0,2.14,0.57,3.81,1.7,5.01c1.14,1.2,2.72,1.8,4.74,1.8H500v-6.3h-50.08V49.06h32.91
		v5H500L500,39h-17.17v3.89h-32.91V6.17H500z"/>
</g>
</svg>
