<svg width="112" height="35" viewBox="0 0 112 35" fill="none" xmlns="http://www.w3.org/2000/svg">
<path d="M45.0987 13.8521H43.232V26.5759H45.0987V13.8521Z" fill="#948398"/>
<path d="M53.48 8.46301H38.2294V10.4085H53.48V8.46301Z" fill="#948398"/>
<path d="M48.4773 13.8521H46.6107V26.5759H48.4773V13.8521Z" fill="#948398"/>
<path d="M100.165 26.5953H102.069V18.93L100.165 16.751V26.5953Z" fill="#948398"/>
<path d="M96.768 26.5953H98.6347V12.3735L112 27.8599V8.46303H110.115V22.6848L96.768 7.2179V26.5953Z" fill="#948398"/>
<path d="M84.5413 8.46301C79.744 8.46301 75.8427 12.5292 75.8427 17.5292C75.8427 22.5292 79.744 26.5953 84.5413 26.5953C89.3387 26.5953 93.24 22.5292 93.24 17.5292C93.24 12.5292 89.3387 8.46301 84.5413 8.46301ZM84.5413 24.6498C80.7707 24.6498 77.7093 21.4591 77.7093 17.5292C77.7093 13.5992 80.7707 10.4085 84.5413 10.4085C88.312 10.4085 91.3733 13.5992 91.3733 17.5292C91.3547 21.4397 88.2933 24.6498 84.5413 24.6498Z" fill="#948398"/>
<path d="M84.5413 16.2256C83.8507 16.2256 83.2907 16.8093 83.2907 17.5292C83.2907 18.249 83.8507 18.8327 84.5413 18.8327C85.232 18.8327 85.792 18.249 85.792 17.5292C85.792 16.8093 85.232 16.2256 84.5413 16.2256Z" fill="#948398"/>
<path d="M72.5573 14.0272C72.5573 10.9533 70.1867 8.46301 67.256 8.46301H57.3067V26.5953H59.1733V10.428H67.2747C69.1413 10.428 70.672 12.0428 70.672 14.0272C70.672 15.9922 69.16 17.607 67.312 17.6264H60.704V26.6148H62.5707V19.5914H66.92L70.4853 26.6148H72.6507L68.9173 19.319C71.064 18.5797 72.5573 16.4202 72.5573 14.0272Z" fill="#948398"/>
<path d="M25.368 4.86381L0 0L13.3467 35L31.9387 11.4008L25.368 4.86381ZM24.9573 7.02335L28.84 10.8755L18.2373 12.8794L24.9573 7.02335ZM15.9227 12.4708L4.74133 2.80156L23.016 6.3035L15.9227 12.4708ZM15.12 14.1829L13.3093 29.8833L3.472 4.0856L15.12 14.1829ZM16.8187 15L28.56 12.7821L15.0827 29.9027L16.8187 15Z" fill="#948398"/>
</svg>
