<svg width="70" height="70" viewBox="0 0 70 70" fill="none" xmlns="http://www.w3.org/2000/svg">
<circle cx="35" cy="35" r="35" fill="#FF455A"/>
<path d="M52.468 29.1582C50.6946 27.5395 48.2118 25.1114 46.2611 23.3771L46.1429 23.3193C45.9655 23.1458 45.7291 23.0302 45.4926 22.9724C40.6453 22.0474 18.2414 17.9428 17.7685 18.0006C17.6502 18.0006 17.532 18.0584 17.4729 18.1162L17.3547 18.2319C17.1773 18.3475 17.1182 18.5209 17 18.6943V18.7522V19.1568V19.2146C19.5419 26.0942 29.4729 48.5829 31.4828 53.9016C31.601 54.2485 31.8374 54.9422 32.2512 55H32.3695C32.6059 55 33.5517 53.786 33.5517 53.786C33.5517 53.786 50.6946 33.4941 52.4089 31.2973C52.6453 31.0082 52.8227 30.7191 53 30.4301C53 29.9676 52.8227 29.4473 52.468 29.1582ZM37.867 31.5285L45.197 25.6317L49.4532 29.5051L37.867 31.5285ZM35.0296 31.1238L22.4384 21.0646L42.7734 24.7646L35.0296 31.1238ZM36.2118 33.7832L49.0985 31.7598L34.3793 49.1032L36.2118 33.7832ZM20.7833 22.0474L34.0246 33.0316L32.133 49.1032L20.7833 22.0474Z" fill="white"/>
</svg>
