<svg width="70" height="70" viewBox="0 0 70 70" fill="none" xmlns="http://www.w3.org/2000/svg">
<circle cx="35" cy="35" r="35" fill="#FF455A"/>
<path fill-rule="evenodd" clip-rule="evenodd" d="M31.0213 52.7848L48.5466 35.2598C48.7251 35.0813 48.8276 34.8404 48.8323 34.5879L49.0713 21.9234C49.0817 21.3699 48.6303 20.9185 48.0768 20.9289L35.412 21.1679C35.1595 21.1726 34.9187 21.2751 34.7401 21.4536L17.2148 38.9787C16.8336 39.3599 16.8336 39.978 17.2148 40.3593L29.6406 52.7848C30.0219 53.1661 30.64 53.1661 31.0213 52.7848ZM35.3568 18.2397C34.3468 18.2587 33.3835 18.6684 32.6692 19.3827L15.1439 36.9077C13.6189 38.4327 13.6189 40.9052 15.1439 42.4302L27.5697 54.8558C29.0947 56.3808 31.5672 56.3808 33.0922 54.8558L50.6175 37.3308C51.3318 36.6165 51.7415 35.6532 51.7606 34.6432L51.9995 21.9787C52.0413 19.7646 50.2356 17.9589 48.0215 18.0007L35.3568 18.2397ZM41.6703 30.5989C42.7487 30.5989 43.6229 29.7247 43.6229 28.6464C43.6229 27.568 42.7487 26.6939 41.6703 26.6939C40.592 26.6939 39.7178 27.568 39.7178 28.6464C39.7178 29.7247 40.592 30.5989 41.6703 30.5989ZM41.6703 33.5276C44.3662 33.5276 46.5516 31.3422 46.5516 28.6464C46.5516 25.9505 44.3662 23.7651 41.6703 23.7651C38.9745 23.7651 36.789 25.9505 36.789 28.6464C36.789 31.3422 38.9745 33.5276 41.6703 33.5276ZM42.6975 37.9883C43.274 37.421 43.2814 36.4939 42.7141 35.9175C42.1468 35.341 41.2197 35.3336 40.6432 35.9009L30.2442 46.1344L25.1064 41.2524C24.5201 40.6953 23.5932 40.719 23.0361 41.3052C22.479 41.8915 22.5027 42.8184 23.0889 43.3755L30.2799 50.2084L42.6975 37.9883Z" fill="white"/>
</svg>
