<svg width="70" height="70" viewBox="0 0 70 70" fill="none" xmlns="http://www.w3.org/2000/svg">
<circle cx="35" cy="35" r="35" fill="#FF455A"/>
<path fill-rule="evenodd" clip-rule="evenodd" d="M28.9552 20.9091L28.9496 20.9646C28.9278 21.1775 28.9329 21.3116 28.9375 21.3607C28.9941 21.9626 29.1254 22.8466 29.2538 23.6338C29.3161 24.0158 29.3745 24.3558 29.4173 24.5999C29.4386 24.7218 29.456 24.8193 29.4679 24.8857L29.4815 24.9609L29.4856 24.9834L29.4878 24.9954C29.7159 26.2688 29.9752 27.6878 30.3635 28.8659C30.4103 29.0078 30.4958 29.1994 30.6343 29.4478C30.7726 29.696 30.9266 29.9365 31.1088 30.2191L31.1118 30.2237L31.12 30.2364C31.1976 30.3567 31.2897 30.4995 31.3736 30.6356C31.8427 31.3967 32.4379 32.483 32.4379 33.8851C32.4379 35.7114 31.9714 37.2938 30.6381 38.6258C29.4203 39.8423 27.6093 40.7063 25.3257 41.5382L25.3244 41.5387C25.0705 41.6311 24.8193 41.7218 24.5746 41.8102C22.5745 42.5328 21.1509 43.0597 20.181 43.635C19.6507 43.9495 19.3659 44.217 19.2122 44.4355C19.0811 44.6219 19 44.834 19 45.1686V48.6083C19 48.7464 19.1119 48.8583 19.25 48.8583H49.7017C49.8398 48.8583 49.9517 48.7464 49.9517 48.6083V45.1686C49.9517 45.0038 49.9127 44.8627 49.7647 44.6623C49.5856 44.4198 49.2593 44.118 48.7233 43.7769C47.9921 43.3117 47.015 42.8538 45.7898 42.3607L48.0584 40.0612C48.9139 40.4407 49.6817 40.8309 50.3338 41.2459C51.7606 42.1537 52.9517 43.3878 52.9517 45.1686V48.6083C52.9517 50.4032 51.4966 51.8583 49.7017 51.8583H19.25C17.4551 51.8583 16 50.4032 16 48.6083V45.1686C16 44.2417 16.2575 43.422 16.7582 42.7099C17.2429 42.0206 17.913 41.4921 18.6506 41.0547C19.9186 40.3026 21.6499 39.6771 23.5552 38.9887C23.8004 38.9002 24.0485 38.8105 24.2988 38.7195C26.5378 37.9038 27.8002 37.2203 28.5178 36.5034C29.1505 35.8714 29.4379 35.1331 29.4379 33.8851C29.4379 33.3548 29.2259 32.8688 28.8196 32.2096C28.7522 32.1001 28.6745 31.9797 28.5908 31.8499C28.2342 31.2971 27.7677 30.5739 27.5143 29.805C27.0482 28.3907 26.7559 26.7589 26.5348 25.5244C26.5348 25.5244 26.0845 23.0649 25.9507 21.6418C25.9243 21.362 25.9275 21.0283 25.9651 20.6601C26.0087 19.9835 26.151 19.2558 26.4687 18.5C27.1272 16.9333 28.0015 15.9988 28.8814 15.4555C30.1965 14.5375 32.0066 14 34.4758 14C37.9477 14 40.1915 15.2716 41.5133 16.9597C42.7848 18.5834 43.1101 20.4761 43.003 21.6392L43.0028 21.6416C42.8683 23.0727 42.6416 24.3138 42.4064 25.591C42.1838 26.8286 41.904 28.3844 41.4354 29.8052C41.182 30.5733 40.7161 31.2965 40.36 31.8491C40.2763 31.979 40.1986 32.0995 40.1312 32.209C39.7255 32.8681 39.5136 33.3543 39.5136 33.8851C39.5136 34.2841 39.543 34.6311 39.6037 34.9391L37.2928 37.2814C36.7309 36.2643 36.5136 35.1315 36.5136 33.8851C36.5136 32.4837 37.1077 31.3977 37.5765 30.6363C37.6602 30.5003 37.7522 30.3576 37.8298 30.2372L37.8301 30.2366L37.8302 30.2365L37.8339 30.2307L37.8386 30.2235C38.0218 29.9391 38.1766 29.6973 38.3156 29.4478C38.4539 29.1994 38.5395 29.0077 38.5864 28.8655C38.978 27.6781 39.2253 26.3303 39.4537 25.06L39.456 25.0475L39.4589 25.0313L39.4602 25.025C39.6946 23.7521 39.8959 22.6373 40.0158 21.3628C40.0591 20.8875 39.9067 19.7738 39.1513 18.8093C38.4662 17.9343 37.1417 17 34.4758 17C32.434 17 31.276 17.4426 30.5985 17.9155L30.5293 17.9638L30.4575 18.0081C30.1694 18.186 29.6797 18.6028 29.2344 19.6624C29.0631 20.07 28.984 20.4638 28.9588 20.8534L28.9552 20.9091ZM36.2948 44.1284L36.7029 40.5462L45.8292 31.2335L50.1321 35.4441L41.0058 44.7627L37.351 45.162C36.7449 45.2325 36.2288 44.7274 36.2948 44.1284ZM50.5569 28.396L52.8314 30.6217C53.3895 31.1738 53.3895 32.0605 52.8314 32.6125L51.0241 34.4199L46.7152 30.2093L48.5285 28.396C49.0866 27.8499 49.9988 27.8499 50.5569 28.396Z" fill="white"/>
</svg>
