<svg width="70" height="70" viewBox="0 0 70 70" fill="none" xmlns="http://www.w3.org/2000/svg">
<circle cx="35" cy="35" r="35" fill="#FF455A"/>
<path d="M44.5 33C46.433 33 48 31.433 48 29.5C48 27.567 46.433 26 44.5 26C42.567 26 41 27.567 41 29.5C41 31.433 42.567 33 44.5 33Z" fill="white"/>
<path fill-rule="evenodd" clip-rule="evenodd" d="M20 20C17.7909 20 16 21.7909 16 24V46C16 48.2091 17.7909 50 20 50H50C52.2091 50 54 48.2091 54 46V24C54 21.7909 52.2091 20 50 20H20ZM50 23H20C19.4477 23 19 23.4477 19 24V43.9828L31.6759 31.9507L40.4749 39.9862L46.5073 36.0746L51 39.8561V24C51 23.4477 50.5523 23 50 23ZM50 47H20.1789L31.7154 36.0495L40.1628 43.764L46.2753 39.8006L51 43.7773V46C51 46.5523 50.5523 47 50 47Z" fill="white"/>
</svg>
