<svg width="19" height="19" viewBox="0 0 19 19" fill="none" xmlns="http://www.w3.org/2000/svg">
<path d="M12 9C12 10.6569 10.6569 12 9 12C7.34315 12 6 10.6569 6 9C6 7.34315 7.34315 6 9 6C10.6569 6 12 7.34315 12 9Z" fill="white"/>
<path fill-rule="evenodd" clip-rule="evenodd" d="M9.00195 18.041C6.54908 18.041 6.25365 18.0281 5.30028 17.9864L5.29195 17.986C4.54332 17.9614 3.80439 17.8092 3.10695 17.536C1.90026 17.0664 0.946094 16.1119 0.476953 14.905C0.214259 14.205 0.072571 13.4655 0.0579531 12.718C0.00195312 11.76 0.00195312 11.446 0.00195312 9.005C0.00195312 6.53872 0.0149455 6.25017 0.0579154 5.29584C0.0728531 4.54936 0.214574 3.81001 0.476953 3.111C0.945584 1.90253 1.9013 0.947177 3.10995 0.479005C3.8086 0.215207 4.5473 0.0731492 5.29395 0.0590048C6.24895 0.00500488 6.56295 0.00500488 9.00195 0.00500488C11.4674 0.00500488 11.7635 0.017853 12.6954 0.0582876L12.712 0.0590048C13.4605 0.0732715 14.2012 0.215314 14.902 0.479005C16.1103 0.947708 17.0658 1.90288 17.535 3.111C17.8021 3.8202 17.9445 4.57026 17.956 5.328C18.012 6.28601 18.012 6.599 18.012 9.03901C18.012 11.479 17.998 11.799 17.956 12.746C17.9411 13.4942 17.799 14.2344 17.536 14.935C17.0656 16.1427 16.11 17.0976 14.902 17.567C14.2022 17.8292 13.4631 17.9709 12.716 17.986C11.761 18.041 11.448 18.041 9.00195 18.041ZM9 14C11.7614 14 14 11.7614 14 9C14 6.23858 11.7614 4 9 4C6.23858 4 4 6.23858 4 9C4 11.7614 6.23858 14 9 14ZM14.5 5C15.3284 5 16 4.32843 16 3.5C16 2.67157 15.3284 2 14.5 2C13.6716 2 13 2.67157 13 3.5C13 4.32843 13.6716 5 14.5 5Z" fill="white"/>
</svg>
