<svg width="121" height="80" viewBox="0 0 121 80" fill="none" xmlns="http://www.w3.org/2000/svg">
<path opacity="0.2" d="M120.038 41.5943C116.068 32.5485 110.776 19.264 106.333 9.49089L105.986 9.07988C105.608 8.13099 104.914 7.30897 104.125 6.70855C87.5245 -4.60299 10.5172 -56.2304 8.65442 -56.7665C8.21247 -56.9559 7.67554 -56.9237 7.35959 -56.7968L6.7277 -56.5431C5.87482 -56.384 5.36893 -55.8139 4.64206 -55.3386L4.54709 -55.117L3.88229 -53.5659L3.78732 -53.3443C1.98774 -22.9025 2.16799 79.2073 0.943839 102.814C0.815968 104.333 0.560217 107.371 2.01208 108.255L2.45404 108.445C3.33795 108.823 8.86797 105.685 8.86797 105.685C8.86797 105.685 106.286 55.3724 116.304 49.6985C117.662 48.9694 118.8 48.1455 119.938 47.3217C120.698 45.549 120.889 43.2705 120.038 41.5943ZM61.5633 27.2866L98.6515 16.4282L108.199 38.0938L61.5633 27.2866ZM51.6212 21.1895L21.0781 -37.5402L91.016 9.22127L51.6212 21.1895ZM51.6721 33.2768L103.169 46.1676L19.6543 89.0624L51.6721 33.2768ZM13.2763 -36.425L44.7305 26.8919L11.2572 85.4635L13.2763 -36.425Z" fill="#FF455A"/>
</svg>
